<svg xmlns="http://www.w3.org/2000/svg" xmlns:xlink="http://www.w3.org/1999/xlink" width="60" height="60" viewBox="0 0 60 60"><defs><path id="tycma" d="M758 3215c16.569 0 30 13.432 30 30 0 16.569-13.431 30-30 30-16.568 0-30-13.431-30-30 0-16.568 13.432-30 30-30z"/><path id="tycmb" d="M741.928 3245.04c0-8.5 6.676-15.474 15.07-15.973a4.837 4.837 0 0 1 .68-.026l.282-.002c8.84 0 16.033 7.178 16.033 16 0 8.824-7.192 16.002-16.033 16.002-.094 0-.188 0-.282-.002a4.894 4.894 0 0 1-.68-.026c-8.394-.498-15.07-7.473-15.07-15.973zm1.996 0c0 1.818.35 3.556.984 5.152.55-.16 1.934-.509 4.378-.795a30.156 30.156 0 0 1-.31-4.357c0-1.195.067-2.355.194-3.469-3.094-.37-4.447-.835-4.538-.867l.383-1.078a13.909 13.909 0 0 0-1.09 5.414zm8.455 12.853c-1.195-1.665-2.142-3.909-2.73-6.529-1.985.228-3.23.495-3.857.654a14.117 14.117 0 0 0 6.587 5.875zm0-25.707a14.113 14.113 0 0 0-7.009 6.664c.302.093 1.566.452 4.096.751.564-3 1.586-5.565 2.914-7.415zm19.618 12.854c0-1.468-.228-2.883-.649-4.214-.387.106-1.844.468-4.547.767a24.87 24.87 0 0 1 .238 3.447c0 1.507-.134 2.96-.38 4.334 2.327.251 3.757.552 4.398.707.607-1.565.94-3.265.94-5.041zm-9.244 13.168a14.108 14.108 0 0 0 7.427-6.28c-.727-.156-2.03-.392-3.959-.593-.758 2.8-1.99 5.174-3.468 6.873zm0-26.336c1.63 1.874 2.961 4.568 3.687 7.752 2.26-.245 3.62-.533 4.165-.664a14.105 14.105 0 0 0-7.853-7.088zm-11.78 13.168c0 1.44.115 2.84.328 4.16a80.57 80.57 0 0 1 5.693-.24v-6.938a80.092 80.092 0 0 1-5.82-.25 26.455 26.455 0 0 0-.202 3.268zm13.727 4.154a25.564 25.564 0 0 0 .132-7.416 85.425 85.425 0 0 1-5.842.244v6.939c2.218.021 4.115.111 5.71.233zm-.416 1.97a84.084 84.084 0 0 0-5.294-.21v7.929c2.263-.717 4.257-3.705 5.294-7.72zm-12.58.005c1.02 4.068 3.001 7.08 5.29 7.743v-7.96c-2.062.02-3.816.103-5.29.217zm-.204-11.369c1.512.12 3.332.21 5.494.23v-8.862c-2.453.711-4.553 4.119-5.494 8.632zm12.994.003c-.96-4.458-3.077-7.837-5.504-8.606v8.832a83.435 83.435 0 0 0 5.504-.226z"/></defs><g><g transform="translate(-728 -3215)"><g><use fill="#f6f6f6" xlink:href="#tycma"/></g><g><use fill="#e2574c" xlink:href="#tycmb"/></g></g><g transform="translate(-728 -3215)"><use fill="#e2574c" xlink:href="#tycma"/></g><g transform="translate(-728 -3215)"><use fill="#fff" xlink:href="#tycmb"/></g></g></svg>